<svg width="185" height="49" viewBox="0 0 185 49" fill="none" xmlns="http://www.w3.org/2000/svg">
<rect x="28" y="21" width="13" height="3" fill="black"/>
<rect x="48" y="21" width="13" height="3" fill="black"/>
<rect x="90" y="21" width="12" height="3" fill="black"/>
<rect x="90" y="21" width="3" height="15" fill="black"/>
<rect x="99" y="21" width="3" height="15" fill="black"/>
<rect x="131" y="21" width="3" height="15" fill="black"/>
<rect x="142" y="24" width="3" height="12" fill="black"/>
<rect x="154" y="24" width="3" height="12" fill="black"/>
<rect x="148" y="24" width="3" height="9" fill="black"/>
<rect x="110" y="21" width="3" height="15" fill="black"/>
<rect x="120" y="24" width="3" height="9" fill="black"/>
<rect x="110" y="21" width="10" height="3" fill="black"/>
<rect x="69" y="21" width="3" height="15" fill="black"/>
<rect x="79" y="24" width="3" height="12" fill="black"/>
<rect x="69" y="21" width="10" height="3" fill="black"/>
<rect x="145" y="21" width="9" height="3" fill="black"/>
<rect x="110" y="33" width="10" height="3" fill="black"/>
<rect x="90" y="33" width="12" height="3" fill="black"/>
<rect x="53" y="27" width="3" height="9" fill="black"/>
<rect x="28" y="27" width="13" height="3" fill="black"/>
<rect x="28" y="33" width="13" height="3" fill="black"/>
<rect x="28" y="21" width="3" height="15" fill="black"/>
</svg>
