<svg width="22" height="22" viewBox="0 0 22 22" fill="none" xmlns="http://www.w3.org/2000/svg">
<path d="M19.2012 7.61276C19.192 6.91849 19.062 6.23113 18.8172 5.58142C18.6048 5.03339 18.2805 4.53569 17.8649 4.1201C17.4493 3.70451 16.9516 3.38019 16.4036 3.16784C15.7622 2.92708 15.0847 2.7969 14.3997 2.78284C13.5179 2.74342 13.2383 2.73242 10.9998 2.73242C8.76132 2.73242 8.4744 2.73242 7.59899 2.78284C6.91438 2.797 6.23714 2.92718 5.59607 3.16784C5.04796 3.38004 4.55017 3.70431 4.13457 4.11992C3.71896 4.53552 3.39469 5.03331 3.18249 5.58142C2.94125 6.22229 2.81135 6.89969 2.7984 7.58434C2.75899 8.46709 2.74707 8.74667 2.74707 10.9852C2.74707 13.2237 2.74707 13.5097 2.7984 14.386C2.81215 15.0717 2.9414 15.7482 3.18249 16.3908C3.39504 16.9387 3.71956 17.4363 4.1353 17.8517C4.55105 18.2671 5.04888 18.5913 5.59699 18.8034C6.2363 19.0539 6.91366 19.1934 7.5999 19.2159C8.48265 19.2553 8.76224 19.2673 11.0007 19.2673C13.2392 19.2673 13.5262 19.2673 14.4016 19.2159C15.0865 19.2024 15.7641 19.0726 16.4054 18.8318C16.9533 18.6192 17.4509 18.2948 17.8664 17.8793C18.282 17.4637 18.6064 16.9661 18.819 16.4183C19.0601 15.7766 19.1893 15.1001 19.2031 14.4135C19.2425 13.5317 19.2544 13.2521 19.2544 11.0127C19.2526 8.77417 19.2526 8.49001 19.2012 7.61276ZM10.9943 15.2183C8.65315 15.2183 6.75657 13.3218 6.75657 10.9806C6.75657 8.63942 8.65315 6.74284 10.9943 6.74284C12.1182 6.74284 13.1961 7.18931 13.9909 7.98405C14.7856 8.77878 15.2321 9.85667 15.2321 10.9806C15.2321 12.1045 14.7856 13.1824 13.9909 13.9771C13.1961 14.7719 12.1182 15.2183 10.9943 15.2183ZM15.4007 7.57425C15.2709 7.57438 15.1424 7.5489 15.0224 7.49928C14.9025 7.44966 14.7935 7.37688 14.7017 7.2851C14.6099 7.19331 14.5372 7.08433 14.4875 6.96439C14.4379 6.84444 14.4124 6.71589 14.4126 6.58609C14.4126 6.45638 14.4381 6.32794 14.4878 6.20811C14.5374 6.08827 14.6101 5.97939 14.7019 5.88767C14.7936 5.79596 14.9025 5.7232 15.0223 5.67357C15.1421 5.62393 15.2706 5.59838 15.4003 5.59838C15.53 5.59838 15.6584 5.62393 15.7783 5.67357C15.8981 5.7232 16.007 5.79596 16.0987 5.88767C16.1904 5.97939 16.2632 6.08827 16.3128 6.20811C16.3624 6.32794 16.388 6.45638 16.388 6.58609C16.388 7.13242 15.9462 7.57425 15.4007 7.57425Z" fill="#DA1F39"/>
<path d="M10.9944 13.7335C12.5148 13.7335 13.7472 12.5011 13.7472 10.9808C13.7472 9.46048 12.5148 8.22803 10.9944 8.22803C9.47415 8.22803 8.2417 9.46048 8.2417 10.9808C8.2417 12.5011 9.47415 13.7335 10.9944 13.7335Z" fill="#DA1F39"/>
</svg>
