<svg width="21" height="21" viewBox="0 0 21 21" fill="none" xmlns="http://www.w3.org/2000/svg">
<path d="M10.5 1.6875C14.5387 1.6875 17.8125 4.96125 17.8125 9C17.8125 12.09 15.6413 15.4575 11.355 19.1385C11.1167 19.3432 10.8128 19.4557 10.4986 19.4554C10.1844 19.4551 9.88072 19.3422 9.64275 19.137L9.35925 18.891C5.26275 15.306 3.1875 12.021 3.1875 9C3.1875 4.96125 6.46125 1.6875 10.5 1.6875ZM10.5 2.8125C8.85897 2.8125 7.28516 3.4644 6.12478 4.62478C4.9644 5.78516 4.3125 7.35897 4.3125 9C4.3125 11.6265 6.2235 14.6528 10.098 18.0428L10.3777 18.285C10.4118 18.3143 10.4551 18.3303 10.5 18.3303C10.5449 18.3303 10.5882 18.3143 10.6223 18.285C14.6842 14.796 16.6875 11.6888 16.6875 9C16.6875 8.18745 16.5275 7.38285 16.2165 6.63215C15.9056 5.88144 15.4498 5.19934 14.8752 4.62478C14.3007 4.05021 13.6186 3.59445 12.8679 3.2835C12.1172 2.97254 11.3126 2.8125 10.5 2.8125ZM10.5 6.1875C11.2459 6.1875 11.9613 6.48382 12.4887 7.01126C13.0162 7.53871 13.3125 8.25408 13.3125 9C13.3125 9.74592 13.0162 10.4613 12.4887 10.9887C11.9613 11.5162 11.2459 11.8125 10.5 11.8125C9.75408 11.8125 9.03871 11.5162 8.51126 10.9887C7.98382 10.4613 7.6875 9.74592 7.6875 9C7.6875 8.25408 7.98382 7.53871 8.51126 7.01126C9.03871 6.48382 9.75408 6.1875 10.5 6.1875ZM10.5 7.3125C10.0524 7.3125 9.62323 7.49029 9.30676 7.80676C8.99029 8.12323 8.8125 8.55245 8.8125 9C8.8125 9.44755 8.99029 9.87678 9.30676 10.1932C9.62323 10.5097 10.0524 10.6875 10.5 10.6875C10.9476 10.6875 11.3768 10.5097 11.6932 10.1932C12.0097 9.87678 12.1875 9.44755 12.1875 9C12.1875 8.55245 12.0097 8.12323 11.6932 7.80676C11.3768 7.49029 10.9476 7.3125 10.5 7.3125Z" fill="black"/>
</svg>
