<svg width="22" height="22" viewBox="0 0 22 22" fill="none" xmlns="http://www.w3.org/2000/svg">
<path d="M2.35693 7.95471L10.7279 12.3084C10.8119 12.352 10.9052 12.3748 10.9998 12.3748C11.0944 12.3748 11.1877 12.352 11.2716 12.3084L19.6426 7.9555V15.518C19.6427 16.1702 19.3931 16.7978 18.9452 17.2719C18.4972 17.746 17.8849 18.0307 17.2336 18.0676L17.0891 18.0716H4.91051C4.25825 18.0716 3.63071 17.8221 3.15661 17.3741C2.68251 16.9262 2.39779 16.3138 2.36086 15.6626L2.35693 15.518V7.95471ZM4.91051 3.92871H17.0891C17.7413 3.92867 18.3689 4.17822 18.843 4.62617C19.3171 5.07412 19.6018 5.68651 19.6387 6.33771L19.6426 6.48228V6.62685L10.9998 11.1211L2.35693 6.62685V6.48228C2.35689 5.83003 2.60644 5.20249 3.05439 4.72839C3.50234 4.25429 4.11473 3.96957 4.76593 3.93264L4.91051 3.92871H17.0891H4.91051Z" fill="#DA1F39"/>
</svg>
