<svg width="14" height="18" viewBox="0 0 14 18" fill="none" xmlns="http://www.w3.org/2000/svg">
<path d="M13.4633 10.0938H4.71667C5.34138 9.80989 6.01822 9.59625 6.71702 9.37839C7.98138 8.98446 9.28262 8.57624 10.3411 7.68649H13.4633C13.7165 7.68649 13.9216 7.48132 13.9216 7.22816C13.9216 6.975 13.7165 6.76982 13.4633 6.76982H11.1646C11.7073 5.91981 11.8413 4.87728 11.5129 3.81322C11.0273 2.23985 9.63872 0.924644 8.13589 0.614911C6.74066 0.32702 5.18501 0.641408 3.97651 1.45531C2.91948 2.16716 2.21891 3.20199 2.00353 4.36966C1.9577 4.61852 2.12223 4.85772 2.37127 4.90355C2.61978 4.94795 2.85915 4.78503 2.90516 4.53581C3.07524 3.6127 3.6376 2.78877 4.48856 2.21585C5.49689 1.53659 6.79007 1.27233 7.95112 1.51296C9.141 1.75788 10.2457 2.81527 10.637 4.08356C10.8139 4.65648 10.9768 5.7554 10.0827 6.67923C10.0513 6.71173 10.0164 6.73858 9.98424 6.76982H0.53597C0.282813 6.76982 0.0776367 6.975 0.0776367 7.22816C0.0776367 7.48132 0.282813 7.68649 0.53597 7.68649H8.65317C7.97256 8.02225 7.22197 8.2608 6.44435 8.50326C5.22975 8.88194 3.97969 9.27407 2.93998 10.0938H0.53597C0.282813 10.0938 0.0776367 10.299 0.0776367 10.5521C0.0776367 10.8053 0.282813 11.0105 0.53597 11.0105H2.07403C1.34472 12.1403 1.32463 13.7018 2.08481 15.051C3.06862 16.7966 4.97912 17.488 6.81245 17.488C7.44982 17.488 8.07788 17.4046 8.65438 17.2528C11.0692 16.6165 12.5667 14.9253 12.5627 12.8395C12.5624 12.5864 12.3572 12.3819 12.1044 12.3819C12.1041 12.3819 12.1037 12.3819 12.1037 12.3819C11.8505 12.3823 11.6457 12.5882 11.6461 12.8409C11.65 14.8129 9.98247 15.9548 8.42091 16.3662C6.45509 16.8836 3.92191 16.4439 2.88332 14.6012C2.3147 13.5918 2.16592 12.0629 3.1832 11.0918C3.21366 11.0627 3.24703 11.0385 3.27811 11.0105H13.4633C13.7165 11.0105 13.9216 10.8053 13.9216 10.5521C13.9216 10.299 13.7165 10.0938 13.4633 10.0938Z" fill="#1D1C1A"/>
</svg>
